PathFileType	4	(X/Y/Z)	C:\Users\°ÂÌØÂü\Desktop\20210112\bx_n_5_901-Unnamed.trc
DataRate	CameraRate	NumFrames	NumMarkers	Units	OrigDataRate	OrigDataStartFrame	OrigNumFrames
50.00	50.00	       9	0	mm	50.00	118	       470
Frame#	Time	
		

118	2.340	-97.90778	110.22111	1047.64819	-729.93030	65.12595	219.58646	-771.57104	216.24869	786.92499	-808.86023	71.65036	563.34387	-772.08356	-8.53847	799.99866				-855.23199	281.01544	726.96594	-809.18677	143.85593	567.51117	-856.42474	254.03978	622.95978	-778.25146	205.09967	535.60956	-857.73175	262.87405	481.81326	-517.98431	-72.54629	143.10112	-549.04645	-20.58091	162.95822	-795.45117	33.70606	172.78964	-600.99103	30.49853	165.91353				-723.28931	157.51176	222.77194	-799.36493	183.99840	180.13264	-773.08667	231.53091	201.56387	-594.15112	216.04417	173.28415	-882.69446	296.10580	144.83026	-557.58972	251.66058	163.78419	-658.90497	296.56277	158.57835	-622.63959	304.32944	158.86827	-528.11646	304.03525	146.40921				-918.78137	87.89883	1102.82263	-843.50989	-50.27914	470.54230	-763.22656	-24.50602	203.04066	-777.06860	228.29436	971.32660	-875.96667	-78.41602	140.99751	-862.19641	-78.51099	857.12506	-852.73535	-71.41653	741.48993	-829.36841	-38.13042	605.56525	-825.15259	-35.97137	558.12726	-677.43781	174.55428	162.69225	-647.06470	-66.60297	162.07449				-605.03937	-72.27269	156.66484	-883.68109	287.97626	862.42676				-839.82721	249.53590	560.92334	-764.69763	15.28583	524.07373	
119	2.360	-99.25925	110.28864	1051.19446	-729.88049	64.95812	219.64053	-773.04169	215.81659	786.74493	-809.86462	71.08762	563.54437	-772.74481	-9.82233	799.92041				-856.73022	280.96124	726.65839	-809.59479	143.61870	567.67578	-857.87903	254.44247	623.09698	-779.04407	205.05817	535.53845	-858.01007	262.76587	481.56290	-517.96869	-72.71066	143.12543	-548.83813	-20.50761	162.90341	-795.43463	33.71417	172.78955	-600.90521	30.44859	166.00635				-723.48712	157.36266	222.49504	-799.34515	183.94719	180.11797	-772.97778	231.41278	201.48653	-594.34686	215.87804	173.06853	-882.94958	296.10477	144.78510	-557.57928	251.68086	163.82106	-658.74817	296.46173	158.51631	-622.44794	304.05856	158.85115	-528.16290	304.03909	146.44402				-920.10583	87.35742	1102.64514	-844.09131	-50.45992	470.46365	-763.42535	-24.59428	202.95558	-777.93262	227.92950	970.57922	-875.80023	-78.62018	141.04199	-863.40454	-79.38770	856.93506	-854.06171	-71.81017	741.04565	-830.34222	-38.33146	605.09583	-826.17444	-36.28745	557.76807	-677.43781	174.55428	162.69225	-647.14130	-66.62444	162.00449				-605.15668	-72.19888	156.58200	-884.48279	287.87030	862.31067				-840.69043	249.25005	560.57727	-766.09839	14.78481	523.50958	
120	2.380	-100.83033	110.58113	1055.12122	-730.10114	64.72440	219.68871	-774.42279	215.57254	786.45636	-810.40747	70.85785	563.85571	-773.29346	-11.06972	799.57629				-857.62726	281.16245	726.65076	-810.13611	143.27640	567.14154	-858.45398	254.44855	623.02191	-779.25885	204.99846	535.35175	-858.56274	262.26569	481.08975	-518.06781	-72.54291	143.24352	-549.04565	-20.65522	162.85706	-795.53680	33.65921	172.63832	-601.01300	30.50009	165.88472				-723.79846	157.43991	222.61105	-799.37793	184.13676	180.08504	-773.13708	231.42926	201.38756	-594.37207	215.83058	172.99681	-882.93860	295.87766	144.66565	-557.65363	251.56978	163.69661	-658.77740	296.42386	158.65007	-622.70209	304.15918	158.70634	-528.21375	304.08356	146.51358				-921.33301	87.11636	1102.24329	-844.93036	-50.81516	470.46671	-763.50891	-24.61816	202.83073	-779.53125	227.22932	969.91992	-875.85522	-78.73365	141.22168	-864.47546	-79.41137	856.36945	-854.57550	-71.98289	740.76086	-831.26721	-38.84938	604.82849	-826.89923	-36.36103	557.37622	-677.43781	174.55428	162.69225	-646.98602	-66.56279	162.00150				-605.01819	-72.22456	156.72443	-886.21191	287.69867	861.80267				-841.22308	248.81313	560.37073	-766.65045	14.28806	524.08868	
121	2.400	-102.17985	111.31142	1058.23279	-730.21875	64.61530	219.59212	-775.35388	215.28304	786.01599	-810.87201	70.56274	563.53235	-773.91254	-12.29104	799.60114				-858.37872	280.88553	726.30481	-810.83380	142.88011	567.05426	-858.92780	254.81287	623.35065	-780.24213	204.52663	535.32422	-859.55688	262.31918	481.21167	-518.02405	-72.72051	143.20863	-548.85309	-20.32436	162.73859	-795.58710	33.73476	172.55086	-600.85187	30.54942	165.76289				-723.73010	157.78072	222.66034	-799.53394	184.28130	180.03238	-773.42029	231.56644	201.60965	-594.82544	215.56911	172.60141	-882.90326	296.04831	144.79497	-557.81946	251.48534	163.80382	-658.74817	296.46173	158.51631	-622.67786	304.20111	158.70828	-528.23425	304.00018	146.28552				-922.64948	86.49577	1102.14648	-845.43274	-50.68439	470.24356	-763.30164	-24.51621	202.91388	-780.36255	227.67148	970.27124	-875.78320	-78.54580	141.04173	-865.29071	-79.95692	856.39941	-856.08832	-72.56203	740.83960	-832.35614	-39.12420	604.73102	-827.77197	-36.72724	557.41351	-677.47656	174.67162	162.69463	-646.99036	-66.43458	162.06224				-605.28564	-71.91830	156.65791	-886.66382	287.43414	861.65466				-841.93817	249.20303	560.49573	-766.84497	14.07337	524.22235	
122	2.420	-103.54226	112.10986	1061.57935	-730.10779	64.96983	219.61633	-776.37030	214.69252	785.72479	-811.52740	70.35698	563.32373	-774.95447	-13.24986	799.67957				-859.34460	280.54172	726.19360	-811.81140	142.66348	567.13928	-860.09576	253.39276	622.30603	-781.19513	204.32103	535.64471	-860.31970	262.32678	480.90906	-518.03015	-72.65646	143.26039	-548.99512	-20.47637	162.81674	-795.42487	33.86102	172.66621	-600.74847	30.59381	165.89734				-723.65253	157.51361	222.81642	-799.51459	184.24374	180.11932	-773.43677	231.71075	201.58269	-594.57410	215.88589	172.89761	-882.91656	296.10672	144.82968	-557.87823	251.57884	163.58385	-658.81714	296.54388	158.38753	-622.72052	304.20392	158.64516	-528.13190	303.95306	146.40604				-923.55969	86.19938	1101.94348	-846.13733	-50.73750	470.04926	-763.27472	-24.34133	202.71100	-781.51752	228.07034	970.80505	-875.97729	-78.46404	140.94899	-866.62933	-81.10641	856.44989	-856.62262	-73.26162	740.36926	-832.71985	-39.07650	604.65759	-828.36316	-36.92138	557.09625	-677.43781	174.55428	162.69225	-646.86670	-66.38669	162.11409				-605.13208	-72.17747	156.67772	-887.68756	286.75394	861.55536				-842.77002	249.42136	560.47296	-767.44788	13.70269	524.10883	
123	2.440	-104.70774	112.48876	1064.64502	-730.21875	64.61530	219.59212	-777.13611	214.73207	785.80469	-811.91626	70.45163	563.44653	-775.76422	-12.83387	799.47943				-860.21265	279.92944	725.80115	-812.01178	142.55690	566.58295	-860.73792	253.53053	622.33319	-781.34814	204.29289	535.69104	-860.74701	262.27676	480.85718	-518.07874	-72.55377	143.15337	-549.01135	-20.54404	162.85745	-795.64319	33.77313	172.55968	-600.74988	30.52353	165.71776				-723.85925	157.58551	222.85313	-799.56354	184.39822	180.00691	-773.34064	231.63939	201.55965	-594.66321	216.00618	172.90779	-882.97510	295.85614	144.60054	-557.63611	251.62521	163.93246	-658.40186	296.86777	158.64355	-622.69226	304.24847	158.56714	-528.11475	304.09860	146.57759				-924.39740	86.05560	1101.70703	-846.41986	-50.99685	470.09647	-763.37946	-24.47288	202.87711	-782.54120	227.64995	970.46783	-875.97729	-78.46404	140.94899	-867.11469	-81.24825	856.48785	-857.31036	-73.70058	740.07544	-833.24292	-39.59637	604.82062	-828.68262	-37.01262	556.76691	-677.69000	174.53282	162.65541	-646.82983	-66.26009	162.02171				-605.23083	-71.96462	156.71170	-888.15710	285.88000	861.44604				-843.56598	248.97713	560.27863	-767.85797	13.39688	524.27008	
124	2.460	-105.83124	113.22387	1067.33167	-730.24634	64.73750	219.45609	-777.58917	214.12163	785.55798	-812.50055	70.29303	563.33405	-776.46442	-12.50704	799.45599				-861.04877	279.74625	726.09705	-812.40222	142.37143	566.52246	-861.43671	253.23825	622.35437	-781.61475	204.36003	535.57672	-861.01202	261.81976	480.70380	-518.09888	-72.55820	143.09331	-549.06738	-20.53073	162.79739	-795.58710	33.73476	172.55086	-600.77582	30.75819	165.94066				-723.97333	157.41435	222.68529	-799.68530	184.06934	180.39297	-773.37085	231.40129	201.64392	-594.61700	215.80829	172.91032	-882.89880	295.87097	144.66785	-557.45575	251.49919	163.85428	-658.89972	296.65964	158.38910	-622.83472	304.13974	158.72714	-528.12653	303.95282	146.49312				-925.42413	85.38258	1101.39746	-846.69727	-51.29637	469.90289	-763.35291	-24.52208	202.95856	-782.86230	227.50737	970.53351	-876.05865	-78.53405	141.04828	-865.14386	-79.79204	854.86755	-857.37573	-73.77776	740.23492	-833.47815	-40.16906	604.71765	-828.87183	-37.41381	556.86511	-677.65118	174.41550	162.65303	-646.84711	-66.32941	162.16638				-605.32208	-71.87570	156.63254	-889.40845	284.81342	861.54468				-844.07019	248.72426	560.26624	-768.24664	13.46252	524.31384	
125	2.480	-106.62222	113.93333	1070.22485	-730.36359	64.74664	219.75618	-778.38995	213.91969	785.49792	-812.96002	70.02456	563.21515	-776.53137	-12.13367	799.70422				-861.40466	279.80493	726.35748	-812.77032	142.28612	566.44775	-861.89911	252.93674	622.26019	-782.16193	203.92894	535.51593	-861.24829	261.67761	480.68112	-518.02405	-72.72051	143.20863	-549.08368	-20.59840	162.83810	-795.83679	33.67931	172.82829	-600.81299	30.54863	165.78357				-723.87494	157.39433	222.78807	-799.51746	184.21675	180.20161	-773.23938	231.04922	201.68207	-594.51947	215.82271	172.88348	-882.91534	295.86728	144.64371	-557.44440	251.67699	163.89284	-658.91522	296.45557	158.47040	-622.65613	304.17126	158.73282	-528.12476	303.97327	146.44353				-926.25537	84.91545	1101.14905	-846.73920	-51.26950	469.45480	-763.35449	-24.48924	202.99678	-783.88855	226.93709	970.90131	-875.96667	-78.41602	140.99751	-865.74158	-79.71787	854.86298	-857.45752	-73.70862	740.19928	-833.63861	-40.29700	604.64240	-829.23865	-37.76181	556.85638	-677.43781	174.55428	162.69225	-646.84094	-65.92823	161.81760				-605.28070	-71.85475	156.68433	-889.91522	284.54291	861.66077				-844.58167	248.09019	560.02631	-768.73114	13.38315	524.45410	
126	2.500	-107.45280	114.44128	1072.79431	-730.06714	64.45761	219.42622	-779.01898	213.59279	785.62250	-813.37885	69.95797	563.38513	-776.64502	-11.65150	799.66437				-861.66235	279.32269	726.23407	-813.09241	142.27390	566.39618	-862.17859	252.83252	622.40094	-782.49097	203.69774	535.46234	-861.26361	261.70255	480.62695	-518.11462	-72.53312	143.16090	-548.85309	-20.32436	162.73859	-795.81458	33.60420	172.93062	-600.90295	30.72131	165.73167				-723.48712	157.36266	222.49504	-799.45490	184.03123	180.21158	-773.10321	230.98012	201.84402	-594.55701	215.70430	172.81973	-882.97925	295.92798	144.70210	-557.47198	251.73241	163.87662	-658.74817	296.46173	158.51631	-622.63690	304.10535	158.78410	-528.19159	303.94537	146.34955				-927.77301	84.53075	1101.03601	-846.70044	-51.48599	469.54135	-763.16461	-24.36073	202.88315	-784.08783	226.80199	971.22595	-875.97729	-78.46404	140.94899	-866.17493	-80.04549	855.04297	-857.48926	-73.49409	740.26581	-833.89117	-40.53025	604.78064	-829.54181	-37.78744	556.67133	-677.43781	174.55428	162.69225	-646.71735	-66.02042	161.88622				-605.23993	-71.87416	156.73431	-889.97028	283.80646	861.75873				-844.83948	247.67969	559.96765	-769.10010	13.50332	524.43402	
